<svg xmlns="http://www.w3.org/2000/svg" viewBox="0 0 100 100"><defs><style>.cls-1{fill:#10b58e;}</style></defs><g id="accueil"><path class="cls-1" d="M50,3.7a.44.44,0,0,1,.33.15l45.8,46.61a.64.64,0,0,1,.17.43V95.72a.55.55,0,0,1-.5.58H70.87a.54.54,0,0,1-.5-.58V70.35a8,8,0,0,0-7.91-8H37.54a8,8,0,0,0-7.91,8V95.72a.54.54,0,0,1-.5.58H4.63a1,1,0,0,1-.93-1V50.89a.64.64,0,0,1,.17-.43L49.67,3.85A.44.44,0,0,1,50,3.7M50,0a4.16,4.16,0,0,0-3,1.25L1.23,47.86a4.31,4.31,0,0,0-1.23,3v44.4A4.67,4.67,0,0,0,4.63,100h24.5a4.24,4.24,0,0,0,4.2-4.28V70.35a4.24,4.24,0,0,1,4.21-4.27H62.46a4.24,4.24,0,0,1,4.21,4.27V95.72a4.24,4.24,0,0,0,4.2,4.28H95.8a4.24,4.24,0,0,0,4.2-4.28V50.89a4.31,4.31,0,0,0-1.23-3L53,1.25A4.16,4.16,0,0,0,50,0Z"/></g></svg>