<svg id="Infos_pratiques" data-name="Infos pratiques" xmlns="http://www.w3.org/2000/svg" viewBox="0 0 100 100"><defs><style>.cls-1{fill:#10b58e;}</style></defs><path class="cls-1" d="M71.67,3.7a3.78,3.78,0,0,1,3.77,3.78v35a3.78,3.78,0,0,1-3.77,3.78H38.4a11.17,11.17,0,0,0-2.71.33l-6.07,1.52-.26,0a.88.88,0,0,1-.73-.45.81.81,0,0,1,0-.86l3.07-6.13a11.32,11.32,0,0,0,1.18-5V7.48A3.78,3.78,0,0,1,36.62,3.7H71.67m0-3.7H36.62a7.48,7.48,0,0,0-7.48,7.48V35.73a7.47,7.47,0,0,1-.79,3.35l-3.07,6.14a4.61,4.61,0,0,0,4.08,6.66,4.71,4.71,0,0,0,1.16-.14l6.06-1.52A8,8,0,0,1,38.4,50H71.67a7.48,7.48,0,0,0,7.47-7.48v-35A7.48,7.48,0,0,0,71.67,0Z"/><circle class="cls-1" cx="41.64" cy="25" r="4.17"/><circle class="cls-1" cx="54.14" cy="25" r="4.17"/><circle class="cls-1" cx="66.64" cy="25" r="4.17"/><path class="cls-1" d="M49.65,62a.79.79,0,0,1,.79.79v2.48a1.83,1.83,0,0,1-1.82,1.82H35.4a5.79,5.79,0,1,0,0,11.57H69.56a8.22,8.22,0,0,0,4.22-1.16L90.54,67.48a.68.68,0,0,1,.33-.09.62.62,0,0,1,.47.2c1.08,1.13,2,2.09,2.76,2.88-3.12,2.11-9,6-20.17,13.29l-.32.21c-3.77.48-22.25,2.27-39.91,3.94a5.82,5.82,0,0,0-3.54,1.67L23.44,96.3H7a3.37,3.37,0,0,1-3.36-3.37V86.05A24.8,24.8,0,0,1,19.35,62.91,12,12,0,0,1,23.87,62H49.65m0-3.71H23.87A15.92,15.92,0,0,0,18,59.47,28.62,28.62,0,0,0,0,86.05v6.88A7.06,7.06,0,0,0,7,100H24.11a2.09,2.09,0,0,0,1.48-.61l7.19-7.19a2,2,0,0,1,1.27-.6c5.57-.53,40.53-3.84,40.93-4.1s25.61-16.67,25-16.67c-.39,0-3.63-3.34-6-5.79a4.34,4.34,0,0,0-5.39-.74L71.88,74.36a4.5,4.5,0,0,1-2.32.64H35.4a2.09,2.09,0,1,1,0-4.17H48.62a5.52,5.52,0,0,0,5.52-5.52V62.83a4.49,4.49,0,0,0-4.49-4.5Z"/></svg>