<svg xmlns="http://www.w3.org/2000/svg" viewBox="0 0 100 100"><defs><style>.cls-1{fill:#10b58e;}</style></defs><g id="L_entreprise" data-name="L&apos;entreprise"><circle class="cls-1" cx="50" cy="14.58" r="14.58"/><circle class="cls-1" cx="81.25" cy="27.08" r="10.42"/><circle class="cls-1" cx="18.75" cy="27.08" r="10.42"/><path class="cls-1" d="M38.43,33.33H61.57a9.26,9.26,0,0,1,9.26,9.26V95.37A4.63,4.63,0,0,1,66.2,100H33.8a4.63,4.63,0,0,1-4.63-4.63V42.59A9.26,9.26,0,0,1,38.43,33.33Z"/><path class="cls-1" d="M9.26,41.67H25a0,0,0,0,1,0,0v53.7A4.63,4.63,0,0,1,20.37,100H4.63A4.63,4.63,0,0,1,0,95.37V50.93A9.26,9.26,0,0,1,9.26,41.67Z"/><path class="cls-1" d="M75,41.67H90.74A9.26,9.26,0,0,1,100,50.93V95.37A4.63,4.63,0,0,1,95.37,100H79.63A4.63,4.63,0,0,1,75,95.37V41.67A0,0,0,0,1,75,41.67Z"/></g></svg>