<svg xmlns="http://www.w3.org/2000/svg" viewBox="0 0 100 100"><defs><style>.cls-1{fill:#10b58e;}</style></defs><g id="L_entreprise" data-name="L&apos;entreprise"><path class="cls-1" d="M50,3.7A10.88,10.88,0,1,1,39.12,14.58,10.89,10.89,0,0,1,50,3.7M50,0A14.59,14.59,0,1,0,64.58,14.58,14.58,14.58,0,0,0,50,0Z"/><path class="cls-1" d="M81.25,20.37a6.72,6.72,0,1,1-6.71,6.71,6.72,6.72,0,0,1,6.71-6.71m0-3.7A10.42,10.42,0,1,0,91.67,27.08,10.42,10.42,0,0,0,81.25,16.67Z"/><path class="cls-1" d="M18.75,20.37A6.72,6.72,0,1,1,12,27.08a6.72,6.72,0,0,1,6.71-6.71m0-3.7A10.42,10.42,0,1,0,29.17,27.08,10.42,10.42,0,0,0,18.75,16.67Z"/><path class="cls-1" d="M61.57,37a5.56,5.56,0,0,1,5.56,5.55V95.37a.93.93,0,0,1-.93.93H33.8a.93.93,0,0,1-.93-.93V42.59A5.56,5.56,0,0,1,38.43,37H61.57m0-3.71H38.43a9.26,9.26,0,0,0-9.26,9.26V95.37A4.63,4.63,0,0,0,33.8,100H66.2a4.63,4.63,0,0,0,4.63-4.63V42.59a9.26,9.26,0,0,0-9.26-9.26Z"/><path class="cls-1" d="M21.3,45.37v50a.93.93,0,0,1-.93.93H4.63a.93.93,0,0,1-.93-.93V50.93a5.57,5.57,0,0,1,5.56-5.56h12m3.7-3.7H9.26A9.26,9.26,0,0,0,0,50.93V95.37A4.63,4.63,0,0,0,4.63,100H20.37A4.63,4.63,0,0,0,25,95.37V41.67Z"/><path class="cls-1" d="M90.74,45.37a5.57,5.57,0,0,1,5.56,5.56V95.37a.93.93,0,0,1-.93.93H79.63a.93.93,0,0,1-.93-.93v-50h12m0-3.7H75v53.7A4.63,4.63,0,0,0,79.63,100H95.37A4.63,4.63,0,0,0,100,95.37V50.93a9.26,9.26,0,0,0-9.26-9.26Z"/></g></svg>