<svg xmlns="http://www.w3.org/2000/svg" viewBox="0 0 100 100"><defs><style>.cls-1{fill:#10b58e;}</style></defs><g id="fournisseurs"><path class="cls-1" d="M54.22,45.37a.41.41,0,0,1,.41.41v25.1a.41.41,0,0,1-.41.42H29.12a.42.42,0,0,1-.42-.42V45.78a.42.42,0,0,1,.42-.41h25.1m0-3.7H29.12A4.11,4.11,0,0,0,25,45.78v25.1A4.11,4.11,0,0,0,29.12,75h25.1a4.11,4.11,0,0,0,4.11-4.12V45.78a4.11,4.11,0,0,0-4.11-4.11Z"/><path class="cls-1" d="M73,7.87a.41.41,0,0,1,.41.41v25.1a.41.41,0,0,1-.41.42H47.87a.42.42,0,0,1-.42-.42V8.28a.42.42,0,0,1,.42-.41H73m0-3.7H47.87a4.11,4.11,0,0,0-4.12,4.11v25.1a4.11,4.11,0,0,0,4.12,4.12H73a4.11,4.11,0,0,0,4.11-4.12V8.28A4.11,4.11,0,0,0,73,4.17Z"/><path class="cls-1" d="M91.72,45.37a.41.41,0,0,1,.41.41v25.1a.41.41,0,0,1-.41.42H66.62a.42.42,0,0,1-.42-.42V45.78a.42.42,0,0,1,.42-.41h25.1m0-3.7H66.62a4.11,4.11,0,0,0-4.12,4.11v25.1A4.11,4.11,0,0,0,66.62,75h25.1a4.11,4.11,0,0,0,4.11-4.12V45.78a4.11,4.11,0,0,0-4.11-4.11Z"/><path class="cls-1" d="M16.67,3.7a.47.47,0,0,1,.46.47V75A7.88,7.88,0,0,0,25,82.87l70.82-.06a.47.47,0,0,1,.47.47V87.5a.46.46,0,0,1-.47.46H79.63v3.71a4.63,4.63,0,1,1-9.26,0V88H38v3.71a4.63,4.63,0,0,1-9.26,0V88H12.5a.46.46,0,0,1-.33-.14A.46.46,0,0,1,12,87.5V16.67A7.88,7.88,0,0,0,4.17,8.8a.45.45,0,0,1-.34-.15.44.44,0,0,1-.13-.32V4.17a.47.47,0,0,1,.47-.47h12.5m0-3.7H4.17A4.17,4.17,0,0,0,0,4.17V8.33A4.17,4.17,0,0,0,4.17,12.5a4.17,4.17,0,0,1,4.16,4.17V87.5a4.2,4.2,0,0,0,4.17,4.17H25a8.34,8.34,0,0,0,16.67,0h25a8.33,8.33,0,1,0,16.66,0h12.5A4.17,4.17,0,0,0,100,87.5V83.28a4.17,4.17,0,0,0-4.17-4.17L25,79.16h0A4.16,4.16,0,0,1,20.83,75V4.17A4.17,4.17,0,0,0,16.67,0Z"/></g></svg>