<svg xmlns="http://www.w3.org/2000/svg" viewBox="0 0 100 100"><defs><style>.cls-1{fill:#10b58e;}</style></defs><g id="fournisseurs"><path class="cls-1" d="M100,83.28V87.5a4.17,4.17,0,0,1-4.17,4.17H83.33a8.33,8.33,0,1,1-16.66,0h-25a8.34,8.34,0,0,1-16.67,0H12.5A4.2,4.2,0,0,1,8.33,87.5V16.67A4.17,4.17,0,0,0,4.17,12.5,4.17,4.17,0,0,1,0,8.33V4.17A4.17,4.17,0,0,1,4.17,0h12.5a4.17,4.17,0,0,1,4.16,4.17V75A4.16,4.16,0,0,0,25,79.16l70.83,0A4.17,4.17,0,0,1,100,83.28Z"/><rect class="cls-1" x="25" y="41.67" width="33.33" height="33.33" rx="4.12"/><rect class="cls-1" x="43.75" y="4.17" width="33.33" height="33.33" rx="4.12"/><rect class="cls-1" x="62.5" y="41.67" width="33.33" height="33.33" rx="4.12"/></g></svg>