<svg id="Infos_pratiques" data-name="Infos pratiques" xmlns="http://www.w3.org/2000/svg" viewBox="0 0 100 100"><defs><style>.cls-1{fill:#10b58e;}</style></defs><path class="cls-1" d="M50,3.7A46.3,46.3,0,1,1,3.7,50,46.35,46.35,0,0,1,50,3.7M50,0a50,50,0,1,0,50,50A50,50,0,0,0,50,0Z"/><path class="cls-1" d="M41.67,79.17V45.83a4.17,4.17,0,0,0-4.17-4.16h0a4.17,4.17,0,0,1-4.17-4.17h0a4.17,4.17,0,0,1,4.17-4.17H54.17a4.17,4.17,0,0,1,4.16,4.17V75a4.17,4.17,0,0,0,4.17,4.17h0a4.17,4.17,0,0,1,4.17,4.16h0A4.17,4.17,0,0,1,62.5,87.5H45.83a4.17,4.17,0,0,1-4.16-4.17Z"/><circle class="cls-1" cx="50" cy="20.83" r="8.33"/></svg>