<svg id="Infos_pratiques" data-name="Infos pratiques" xmlns="http://www.w3.org/2000/svg" viewBox="0 0 100 100"><defs><style>.cls-1{fill:#10b58e;}.cls-2{fill:#fff;}</style></defs><circle class="cls-1" cx="50" cy="50" r="50"/><path class="cls-1" d="M41.67,79.17V45.83a4.17,4.17,0,0,0-4.17-4.16h0a4.17,4.17,0,0,1-4.17-4.17h0a4.17,4.17,0,0,1,4.17-4.17H54.17a4.17,4.17,0,0,1,4.16,4.17V75a4.17,4.17,0,0,0,4.17,4.17h0a4.17,4.17,0,0,1,4.17,4.16h0A4.17,4.17,0,0,1,62.5,87.5H45.83a4.17,4.17,0,0,1-4.16-4.17Z"/><path class="cls-2" d="M54.17,36.57a.93.93,0,0,1,.92.93V75a7.43,7.43,0,0,0,7.41,7.41.93.93,0,1,1,0,1.85H45.83a.93.93,0,0,1-.92-.93V45.83a7.42,7.42,0,0,0-7.41-7.4.93.93,0,0,1,0-1.86H54.17m0-3.24H37.5a4.17,4.17,0,0,0,0,8.34,4.17,4.17,0,0,1,4.17,4.16v37.5a4.17,4.17,0,0,0,4.16,4.17H62.5a4.17,4.17,0,1,0,0-8.33A4.17,4.17,0,0,1,58.33,75V37.5a4.17,4.17,0,0,0-4.16-4.17Z"/><circle class="cls-1" cx="50" cy="20.83" r="8.33"/><path class="cls-2" d="M50,16.2a4.63,4.63,0,1,1-4.63,4.63A4.64,4.64,0,0,1,50,16.2m0-3.7a8.34,8.34,0,1,0,8.33,8.33A8.33,8.33,0,0,0,50,12.5Z"/></svg>